<?xml version="1.0" encoding="UTF-8"?>
<svg width="64" height="64" viewBox="0 0 64 64" xmlns="http://www.w3.org/2000/svg">
  <defs>
    <!-- Simplified gradients for small sizes -->
    <radialGradient id="globeSimple" cx="0.3" cy="0.3">
      <stop offset="0%" stop-color="#4A90E2"/>
      <stop offset="100%" stop-color="#2E6DA4"/>
    </radialGradient>
    
    <linearGradient id="coffeeSimple" x1="0%" y1="0%" x2="0%" y2="100%">
      <stop offset="0%" stop-color="#8B4513"/>
      <stop offset="100%" stop-color="#6B3410"/>
    </linearGradient>
  </defs>
  
  <!-- Globe background -->
  <circle cx="32" cy="32" r="28" fill="url(#globeSimple)" stroke="#1565C0" stroke-width="2"/>
  
  <!-- Simplified continents -->
  <circle cx="20" cy="22" r="6" fill="#2E7D32" opacity="0.8"/>
  <circle cx="38" cy="20" r="5" fill="#2E7D32" opacity="0.8"/>
  <circle cx="45" cy="35" r="4" fill="#2E7D32" opacity="0.8"/>
  <circle cx="25" cy="42" r="5" fill="#2E7D32" opacity="0.8"/>
  
  <!-- Coffee cup in bottom right -->
  <g transform="translate(42, 42) scale(0.6)">
    <!-- Cup -->
    <path d="M0 20 L2 5 L18 5 L20 20 C20 22, 18 24, 16 24 L4 24 C2 24, 0 22, 0 20 Z" 
          fill="url(#coffeeSimple)" stroke="#5D4037" stroke-width="1"/>
    
    <!-- Coffee -->
    <path d="M2 18 L3 8 L17 8 L18 18 C18 19, 17 20, 16 20 L4 20 C3 20, 2 19, 2 18 Z" 
          fill="#1A1A1A"/>
    
    <!-- Handle -->
    <path d="M20 10 C24 10, 26 12, 26 16 C26 20, 24 22, 20 22" 
          fill="none" stroke="url(#coffeeSimple)" stroke-width="2" stroke-linecap="round"/>
    
    <!-- Steam -->
    <circle cx="6" cy="2" r="1" fill="#FFFFFF" opacity="0.6"/>
    <circle cx="10" cy="1" r="1" fill="#FFFFFF" opacity="0.7"/>
    <circle cx="14" cy="2" r="1" fill="#FFFFFF" opacity="0.6"/>
  </g>
</svg>